# xmcd
#
# Track frame offsets:
#	150
#	40424
#	85612
#
# Disc length: 1613 seconds
#
# Revision: 0
# Processed by: cddbd v1.5.2PL0 Copyright (c) Steve Scherf et al.
# Submitted via: audiograbber 1.83.01
#
DISCID=19064b03
DTITLE=Markus Schulz presents - Coldharbour Selections 12
DYEAR=1900
DGENRE=Trance
TTITLE0=Lange pres. Firewall feat Jav. D - Looking Too Deep (Lange Mix)
TTITLE1=Subshere - First Light
TTITLE2=Tenishia - Five
EXTD=
EXTT0=
EXTT1=
EXTT2=
PLAYORDER=
